<svg width="20" height="20" viewBox="0 0 20 20" fill="none" xmlns="http://www.w3.org/2000/svg">
<path fill-rule="evenodd" clip-rule="evenodd" d="M6.74717 2.32685C7.04006 2.03395 7.51493 2.03395 7.80783 2.32685L10.6487 5.16767L11.0903 4.72599L12.151 3.66533L12.1574 3.67177L12.9309 2.89828C13.2238 2.60539 13.6987 2.60539 13.9916 2.89828C14.2845 3.19117 14.2845 3.66605 13.9916 3.95894L13.2181 4.73243L16.4947 8.009C17.6662 9.18058 17.6662 11.0801 16.4947 12.2516L14.9037 13.8426L17.6736 16.6126C17.9665 16.9055 17.9665 17.3804 17.6736 17.6733C17.3807 17.9662 16.9059 17.9662 16.613 17.6733L13.843 14.9033L12.6561 16.0903C11.4845 17.2618 9.585 17.2618 8.41343 16.0902L5.13685 12.8137L4.46145 13.4891C4.16855 13.782 3.69368 13.782 3.40079 13.4891C3.10789 13.1962 3.10789 12.7213 3.40079 12.4284L4.07619 11.753L4.06975 11.7466L5.01655 10.7998L2.17572 7.95895C1.88283 7.66606 1.88283 7.19118 2.17572 6.89829C2.46862 6.6054 2.94349 6.6054 3.23638 6.89829L6.07721 9.73912L9.58799 6.22833L6.74717 3.38751C6.45427 3.09461 6.45427 2.61974 6.74717 2.32685ZM6.19751 11.753L9.47409 15.0296C10.0599 15.6154 11.0096 15.6154 11.5954 15.0296L15.434 11.191C16.0198 10.6052 16.0198 9.65545 15.434 9.06966L12.1574 5.79309L6.19751 11.753Z" fill="#676879"/>
</svg>
