<svg width="20" height="20" viewBox="0 0 20 20" fill="none" xmlns="http://www.w3.org/2000/svg">
<path fill-rule="evenodd" clip-rule="evenodd" d="M6.74668 2.32679C7.03957 2.03389 7.51445 2.03389 7.80734 2.32679L10.6482 5.16761L11.0898 4.72593L12.1505 3.66527L12.1569 3.6717L12.9304 2.89822C13.2233 2.60532 13.6982 2.60532 13.9911 2.89822C14.284 3.19111 14.284 3.66598 13.9911 3.95888L13.2176 4.73236L16.4942 8.00894C17.6658 9.18052 17.6658 11.08 16.4942 12.2516L14.9032 13.8426L17.6732 16.6125C17.966 16.9054 17.966 17.3803 17.6732 17.6732C17.3803 17.9661 16.9054 17.9661 16.6125 17.6732L13.8425 14.9032L12.6556 16.0902C11.484 17.2618 9.58451 17.2618 8.41294 16.0902L5.13636 12.8136L4.46096 13.489C4.16806 13.7819 3.69319 13.7819 3.4003 13.489C3.1074 13.1961 3.1074 12.7212 3.4003 12.4283L4.0757 11.7529L4.06926 11.7465L5.01606 10.7997L2.17524 7.95889C1.88234 7.666 1.88234 7.19112 2.17524 6.89823C2.46813 6.60534 2.943 6.60534 3.2359 6.89823L6.07672 9.73905L9.5875 6.22827L6.74668 3.38745C6.45378 3.09455 6.45378 2.61968 6.74668 2.32679ZM6.19702 11.7529L9.4736 15.0295C10.0594 15.6153 11.0091 15.6153 11.5949 15.0295L15.4335 11.1909C16.0193 10.6051 16.0193 9.65539 15.4335 9.0696L12.1569 5.79302L6.19702 11.7529Z" fill="#676879"/>
</svg>
