<svg width="20" height="20" viewBox="0 0 20 20" fill="none" xmlns="http://www.w3.org/2000/svg">
<mask id="path-1-inside-1_241_8486" fill="white">
<path fill-rule="evenodd" clip-rule="evenodd" d="M16.812 16.4614C16.6504 16.4614 16.4996 16.4183 16.3596 16.3213L15.5409 15.7827C13.2881 14.2776 10.694 13.4115 8.00303 13.2553C8.06205 13.5636 8.15447 13.8644 8.2803 14.1561C8.51729 14.7055 8.85123 15.1902 9.2929 15.6104C9.61607 15.9228 9.62684 16.4291 9.32522 16.7522C9.16363 16.9138 8.94818 17 8.73274 17C8.52806 17 8.33416 16.9246 8.17257 16.7738C7.58009 16.2136 7.11688 15.5457 6.79371 14.7917C6.57789 14.2881 6.43413 13.7653 6.36244 13.2297H5.50102C4.56383 13.2297 3.69126 12.8634 3.02338 12.2063C2.36626 11.5492 2 10.6658 2 9.72864C2 8.79145 2.36626 7.91888 3.02338 7.251C3.69126 6.59388 4.56383 6.22762 5.50102 6.22762L7.11688 6.22762H7.11847C10.1342 6.22731 13.0421 5.34399 15.5517 3.67457L16.3704 3.13595C16.6181 2.97436 16.9413 2.95282 17.1998 3.09286C17.4584 3.2329 17.6307 3.50221 17.6307 3.80384V15.6535C17.6307 15.9551 17.4691 16.2244 17.1998 16.3644C17.0706 16.4291 16.9413 16.4614 16.812 16.4614ZM16.0041 14.1561C13.5588 12.6372 10.7903 11.7754 7.92481 11.6354V7.82193C10.7903 7.68189 13.5588 6.8201 16.0041 5.3012V14.1561ZM5.50102 7.84348H6.30895V11.6138H5.50102C4.99472 11.6138 4.52074 11.4199 4.16525 11.0644C3.80976 10.7089 3.61586 10.2349 3.61586 9.72864C3.61586 9.22234 3.80976 8.74836 4.16525 8.39287C4.52074 8.03738 4.99472 7.84348 5.50102 7.84348Z"/>
</mask>
<path fill-rule="evenodd" clip-rule="evenodd" d="M16.812 16.4614C16.6504 16.4614 16.4996 16.4183 16.3596 16.3213L15.5409 15.7827C13.2881 14.2776 10.694 13.4115 8.00303 13.2553C8.06205 13.5636 8.15447 13.8644 8.2803 14.1561C8.51729 14.7055 8.85123 15.1902 9.2929 15.6104C9.61607 15.9228 9.62684 16.4291 9.32522 16.7522C9.16363 16.9138 8.94818 17 8.73274 17C8.52806 17 8.33416 16.9246 8.17257 16.7738C7.58009 16.2136 7.11688 15.5457 6.79371 14.7917C6.57789 14.2881 6.43413 13.7653 6.36244 13.2297H5.50102C4.56383 13.2297 3.69126 12.8634 3.02338 12.2063C2.36626 11.5492 2 10.6658 2 9.72864C2 8.79145 2.36626 7.91888 3.02338 7.251C3.69126 6.59388 4.56383 6.22762 5.50102 6.22762L7.11688 6.22762H7.11847C10.1342 6.22731 13.0421 5.34399 15.5517 3.67457L16.3704 3.13595C16.6181 2.97436 16.9413 2.95282 17.1998 3.09286C17.4584 3.2329 17.6307 3.50221 17.6307 3.80384V15.6535C17.6307 15.9551 17.4691 16.2244 17.1998 16.3644C17.0706 16.4291 16.9413 16.4614 16.812 16.4614ZM16.0041 14.1561C13.5588 12.6372 10.7903 11.7754 7.92481 11.6354V7.82193C10.7903 7.68189 13.5588 6.8201 16.0041 5.3012V14.1561ZM5.50102 7.84348H6.30895V11.6138H5.50102C4.99472 11.6138 4.52074 11.4199 4.16525 11.0644C3.80976 10.7089 3.61586 10.2349 3.61586 9.72864C3.61586 9.22234 3.80976 8.74836 4.16525 8.39287C4.52074 8.03738 4.99472 7.84348 5.50102 7.84348Z" fill="#676879"/>
<path d="M16.3596 16.3213L16.9288 15.4991L16.9191 15.4924L16.9092 15.4859L16.3596 16.3213ZM15.5409 15.7827L14.9853 16.6142L14.9913 16.6181L15.5409 15.7827ZM8.00303 13.2553L8.06097 12.257L6.7795 12.1826L7.02087 13.4434L8.00303 13.2553ZM8.2803 14.1561L7.36209 14.5522L8.2803 14.1561ZM9.2929 15.6104L9.98795 14.8914L9.98212 14.8858L9.2929 15.6104ZM9.32522 16.7522L10.0323 17.4593L10.0445 17.4472L10.0563 17.4346L9.32522 16.7522ZM8.17257 16.7738L7.48555 17.5004L7.49026 17.5048L8.17257 16.7738ZM6.79371 14.7917L7.71285 14.3977V14.3977L6.79371 14.7917ZM6.36244 13.2297L7.3536 13.097L7.23751 12.2297H6.36244V13.2297ZM3.02338 12.2063L2.31625 12.9134L2.32204 12.9191L3.02338 12.2063ZM3.02338 7.251L2.32204 6.53816L2.31625 6.54387L2.31054 6.54966L3.02338 7.251ZM5.50102 6.22762L5.50102 5.22762H5.50102V6.22762ZM7.11688 6.22762L7.11688 7.22762H7.11688V6.22762ZM7.11847 6.22762V7.22762H7.11858L7.11847 6.22762ZM15.5517 3.67457L15.002 2.83914L14.9978 2.84197L15.5517 3.67457ZM16.3704 3.13595L15.8241 2.29833L15.8207 2.30053L16.3704 3.13595ZM17.1998 3.09286L16.7235 3.97215V3.97215L17.1998 3.09286ZM17.1998 16.3644L17.647 17.2589L17.6541 17.2553L17.6612 17.2516L17.1998 16.3644ZM7.92481 11.6354H6.92481V12.5877L7.87599 12.6342L7.92481 11.6354ZM16.0041 14.1561L15.4765 15.0056L17.0041 15.9544V14.1561H16.0041ZM7.92481 7.82193L7.876 6.82313L6.92481 6.86961V7.82193H7.92481ZM16.0041 5.3012H17.0041V3.50284L15.4765 4.45173L16.0041 5.3012ZM6.30895 7.84348H7.30895V6.84348H6.30895V7.84348ZM6.30895 11.6138V12.6138H7.30895V11.6138H6.30895ZM4.16525 11.0644L4.87236 10.3573L4.87235 10.3573L4.16525 11.0644ZM4.16525 8.39287L4.87235 9.09998L4.87236 9.09998L4.16525 8.39287ZM15.7904 17.1435C16.1068 17.3626 16.4584 17.4614 16.812 17.4614V15.4614C16.8213 15.4614 16.8418 15.4628 16.8682 15.4708C16.8951 15.479 16.9161 15.4903 16.9288 15.4991L15.7904 17.1435ZM14.9913 16.6181L15.81 17.1568L16.9092 15.4859L16.0905 14.9473L14.9913 16.6181ZM7.9451 14.2537C10.4587 14.3995 12.881 15.2083 14.9854 16.6142L16.0964 14.9512C13.6952 13.347 10.9292 12.4235 8.06097 12.257L7.9451 14.2537ZM7.02087 13.4434C7.09364 13.8235 7.20759 14.194 7.36209 14.5522L9.19851 13.76C9.10136 13.5348 9.03046 13.3038 8.98519 13.0673L7.02087 13.4434ZM7.36209 14.5522C7.65149 15.2231 8.06252 15.8202 8.60369 16.3349L9.98212 14.8858C9.63995 14.5603 9.38309 14.1879 9.19851 13.76L7.36209 14.5522ZM8.59788 16.3294C8.52945 16.2632 8.52307 16.1461 8.59416 16.0699L10.0563 17.4346C10.7306 16.712 10.7027 15.5823 9.98792 14.8914L8.59788 16.3294ZM8.61811 16.0451C8.64483 16.0184 8.68406 16 8.73274 16V18C9.21231 18 9.68244 17.8092 10.0323 17.4593L8.61811 16.0451ZM8.73274 16C8.75484 16 8.78148 16.0044 8.80789 16.015C8.83415 16.0255 8.84964 16.0378 8.85489 16.0427L7.49026 17.5048C7.8317 17.8235 8.26759 18 8.73274 18V16ZM8.85958 16.0471C8.36809 15.5825 7.98312 15.0284 7.71285 14.3977L5.87456 15.1856C6.25064 16.0631 6.79209 16.8448 7.48556 17.5004L8.85958 16.0471ZM7.71285 14.3977C7.5327 13.9774 7.41322 13.5425 7.3536 13.097L5.37128 13.3623C5.45504 13.9881 5.62307 14.5988 5.87456 15.1856L7.71285 14.3977ZM5.50102 14.2297H6.36244V12.2297H5.50102V14.2297ZM2.32204 12.9191C3.17227 13.7556 4.2949 14.2297 5.50102 14.2297V12.2297C4.83276 12.2297 4.21026 11.9712 3.72471 11.4935L2.32204 12.9191ZM1 9.72864C1 10.9301 1.47096 12.0681 2.31627 12.9134L3.73048 11.4992C3.26156 11.0303 3 10.4016 3 9.72864H1ZM2.31054 6.54966C1.47403 7.39989 1 8.52252 1 9.72864H3C3 9.06038 3.25849 8.43788 3.73621 7.95233L2.31054 6.54966ZM5.50102 5.22762C4.2949 5.22762 3.17227 5.70165 2.32204 6.53816L3.72471 7.96383C4.21026 7.48611 4.83276 7.22762 5.50102 7.22762V5.22762ZM7.11688 5.22762L5.50102 5.22762L5.50102 7.22762L7.11688 7.22762L7.11688 5.22762ZM7.11847 5.22762H7.11688V7.22762H7.11847V5.22762ZM14.9978 2.84197C12.6516 4.40275 9.93611 5.22733 7.11837 5.22762L7.11858 7.22762C10.3322 7.22729 13.4327 6.28523 16.1055 4.50717L14.9978 2.84197ZM15.8207 2.30053L15.002 2.83915L16.1013 4.50999L16.92 3.97137L15.8207 2.30053ZM17.6761 2.21357C17.0743 1.8876 16.3591 1.9494 15.8241 2.29834L16.9166 3.97356C16.8919 3.98969 16.8652 3.99815 16.837 3.99973C16.8082 4.00134 16.7676 3.996 16.7235 3.97215L17.6761 2.21357ZM18.6307 3.80384C18.6307 3.11304 18.2374 2.51758 17.6761 2.21357L16.7235 3.97215C16.6794 3.94823 16.6307 3.89138 16.6307 3.80384H18.6307ZM18.6307 15.6535V3.80384H16.6307V15.6535H18.6307ZM17.6612 17.2516C18.2642 16.9381 18.6307 16.325 18.6307 15.6535H16.6307C16.6307 15.624 16.6391 15.5876 16.6604 15.5523C16.6819 15.5168 16.711 15.4915 16.7385 15.4772L17.6612 17.2516ZM16.812 17.4614C17.1141 17.4614 17.3955 17.3846 17.647 17.2589L16.7526 15.47C16.7478 15.4724 16.7516 15.47 16.7634 15.467C16.7756 15.4639 16.7924 15.4614 16.812 15.4614V17.4614ZM7.87599 12.6342C10.5718 12.7659 13.1755 13.5764 15.4765 15.0056L16.5317 13.3066C13.942 11.698 11.0087 10.7849 7.97362 10.6365L7.87599 12.6342ZM6.92481 7.82193V11.6354H8.92481V7.82193H6.92481ZM15.4765 4.45173C13.1755 5.88094 10.5718 6.69138 7.876 6.82313L7.97362 8.82074C11.0087 8.67241 13.942 7.75927 16.5317 6.15066L15.4765 4.45173ZM17.0041 14.1561V5.3012H15.0041V14.1561H17.0041ZM6.30895 6.84348H5.50102V8.84348H6.30895V6.84348ZM7.30895 11.6138V7.84348H5.30895V11.6138H7.30895ZM5.50102 12.6138H6.30895V10.6138H5.50102V12.6138ZM3.45814 11.7715C4.00421 12.3176 4.73384 12.6138 5.50102 12.6138V10.6138C5.25561 10.6138 5.03727 10.5222 4.87236 10.3573L3.45814 11.7715ZM2.61586 9.72864C2.61586 10.4958 2.91208 11.2255 3.45814 11.7715L4.87235 10.3573C4.70744 10.1924 4.61586 9.97406 4.61586 9.72864H2.61586ZM3.45814 7.68576C2.91208 8.23183 2.61586 8.96146 2.61586 9.72864H4.61586C4.61586 9.48323 4.70744 9.26489 4.87235 9.09998L3.45814 7.68576ZM5.50102 6.84348C4.73384 6.84348 4.00421 7.1397 3.45814 7.68576L4.87236 9.09998C5.03727 8.93506 5.25561 8.84348 5.50102 8.84348V6.84348Z" fill="#676879" mask="url(#path-1-inside-1_241_8486)"/>
</svg>
