<svg width="20" height="20" viewBox="0 0 20 20" fill="none" xmlns="http://www.w3.org/2000/svg">
<path fill-rule="evenodd" clip-rule="evenodd" d="M3.28033 2.21967C2.98744 1.92678 2.51256 1.92678 2.21967 2.21967C1.92678 2.51256 1.92678 2.98744 2.21967 3.28033L7.63274 8.6934C7.54586 8.91276 7.5 9.14855 7.5 9.38906C7.5 9.89004 7.69898 10.3705 8.05318 10.7248L8.05313 10.7249L8.06059 10.7321L8.57806 11.2355C8.53993 11.4121 8.51546 11.5924 8.50533 11.7748C8.45874 12.6139 8.71862 13.4409 9.23579 14.1022L11.3521 17.3536C11.3651 17.3736 11.3791 17.3929 11.3939 17.4116C11.6302 17.7085 11.9667 17.909 12.3402 17.9757C12.7014 18.0402 13.0733 17.9753 13.3908 17.7932L16.1108 16.4505C16.2585 16.3776 16.3782 16.258 16.4512 16.1102L17.7949 13.3905C17.9759 13.0734 18.0401 12.7024 17.9755 12.3423C17.9088 11.9702 17.7092 11.6351 17.414 11.3992C17.3952 11.3842 17.3757 11.3701 17.3556 11.357L14.1044 9.23571C13.4429 8.7187 12.6158 8.45889 11.7767 8.50529C11.5922 8.51549 11.41 8.54033 11.2315 8.57911L10.7347 8.06331L10.7248 8.05318C10.3705 7.69898 9.89004 7.5 9.38906 7.5C9.14855 7.5 8.91277 7.54586 8.6934 7.63274L3.28033 2.21967ZM9 9.38906C9 9.2859 9.04095 9.18696 9.11384 9.11398L9.11398 9.11384C9.18696 9.04095 9.2859 9 9.38906 9C9.49053 9 9.58792 9.03962 9.66054 9.11029L9.80322 9.25844C9.70337 9.33819 9.60757 9.42375 9.51638 9.51488L9.51636 9.51489C9.42441 9.60677 9.33811 9.70333 9.25771 9.80401L9.11127 9.66154C9.03998 9.58881 9 9.491 9 9.38906ZM10.5766 10.576C10.772 10.3808 11.0045 10.2305 11.2581 10.1325C11.2671 10.1293 11.2761 10.1259 11.285 10.1223C11.468 10.0546 11.6615 10.014 11.8595 10.003C12.3431 9.97626 12.8196 10.1287 13.1978 10.4311C13.2166 10.4461 13.2361 10.4602 13.2563 10.4734L16.4883 12.5821C16.4937 12.5895 16.4974 12.598 16.4991 12.607C16.5016 12.6212 16.4989 12.6358 16.4915 12.6482C16.4808 12.666 16.4708 12.6842 16.4616 12.7027L16.2163 13.1993L14.1502 11.65C13.8188 11.4015 13.3487 11.4687 13.1002 11.8001C12.8517 12.1315 12.9189 12.6016 13.2503 12.8501L15.4631 14.5094C15.489 14.5288 15.5157 14.5463 15.5431 14.5618L15.2189 15.218L14.5854 15.5307L12.8469 13.2456C12.5961 12.916 12.1256 12.8521 11.7959 13.1029C11.4663 13.3536 11.4023 13.8242 11.6531 14.1539L13.2152 16.2071L12.7025 16.4601C12.6832 16.4697 12.6643 16.4801 12.6458 16.4913C12.6333 16.4989 12.6184 16.5016 12.6039 16.4991C12.5946 16.4974 12.5859 16.4936 12.5785 16.488L10.4741 13.2551C10.4608 13.2345 10.4464 13.2147 10.4311 13.1956C10.1286 12.8175 9.97619 12.3413 10.003 11.858C10.0299 11.3747 10.234 10.9183 10.5766 10.576Z" fill="#676879"/>
<path fill-rule="evenodd" clip-rule="evenodd" d="M16.091 4.96965C16.3839 4.67676 16.3839 4.20189 16.091 3.90899C15.7981 3.6161 15.3232 3.6161 15.0303 3.90899L14.5 4.43933L13.9697 3.90899C13.6768 3.6161 13.2019 3.6161 12.909 3.90899C12.6161 4.20189 12.6161 4.67676 12.909 4.96965L13.4393 5.49999L12.909 6.03031C12.6161 6.32321 12.6161 6.79808 12.909 7.09097C13.2019 7.38387 13.6768 7.38387 13.9697 7.09097L14.5 6.56065L15.0303 7.09097C15.3232 7.38387 15.7981 7.38387 16.091 7.09097C16.3839 6.79808 16.3839 6.32321 16.091 6.03031L15.5607 5.49999L16.091 4.96965Z" fill="#676879"/>
<path fill-rule="evenodd" clip-rule="evenodd" d="M6.71209 14.591C7.00499 14.2981 7.00499 13.8232 6.71209 13.5303C6.4192 13.2374 5.94433 13.2374 5.65143 13.5303L5.12109 14.0607L4.59075 13.5303C4.29786 13.2374 3.82299 13.2374 3.53009 13.5303C3.2372 13.8232 3.2372 14.2981 3.53009 14.591L4.06043 15.1213L3.53011 15.6517C3.23722 15.9445 3.23722 16.4194 3.53011 16.7123C3.82301 17.0052 4.29788 17.0052 4.59077 16.7123L5.12109 16.182L5.65142 16.7123C5.94431 17.0052 6.41918 17.0052 6.71208 16.7123C7.00497 16.4194 7.00497 15.9445 6.71208 15.6517L6.18175 15.1213L6.71209 14.591Z" fill="#676879"/>
</svg>
