<svg width="20" height="20" viewBox="0 0 20 20" fill="none" xmlns="http://www.w3.org/2000/svg">
<path fill-rule="evenodd" clip-rule="evenodd" d="M11.0149 4.16669C11.0149 3.75247 10.6791 3.41669 10.2649 3.41669C9.85072 3.41669 9.51493 3.75247 9.51493 4.16669V5.57578L6.66644 5.57578C5.14766 5.57578 3.91644 6.807 3.91644 8.32578V8.48487H3.72705C2.76055 8.48487 1.97705 9.26837 1.97705 10.2349V12.1137C1.97705 13.0802 2.76055 13.8637 3.72705 13.8637H3.91644V14.0227C3.91644 15.5415 5.14766 16.7727 6.66645 16.7727H13.3331C14.8519 16.7727 16.0831 15.5415 16.0831 14.0227V13.8637H16.2725C17.239 13.8637 18.0225 13.0802 18.0225 12.1137V10.2349C18.0225 9.26837 17.239 8.48487 16.2725 8.48487H16.0831V8.32578C16.0831 6.80699 14.8519 5.57578 13.3331 5.57578L11.0149 5.57578V4.16669ZM14.5831 13.1137L14.5831 13.1149V14.0227C14.5831 14.7131 14.0235 15.2727 13.3331 15.2727H6.66645C5.97609 15.2727 5.41644 14.7131 5.41644 14.0227V13.1137V9.23487V8.32578C5.41644 7.63542 5.97609 7.07578 6.66644 7.07578H13.3331C14.0235 7.07578 14.5831 7.63542 14.5831 8.32578V9.23366L14.5831 9.23487V13.1137ZM16.2725 12.3637H16.0831V9.98487H16.2725C16.4106 9.98487 16.5225 10.0968 16.5225 10.2349V12.1137C16.5225 12.2517 16.4106 12.3637 16.2725 12.3637ZM3.91644 12.3637V9.98487H3.72705C3.58898 9.98487 3.47705 10.0968 3.47705 10.2349V12.1137C3.47705 12.2517 3.58898 12.3637 3.72705 12.3637H3.91644ZM9.07554 9.98487C9.07554 9.57066 8.73975 9.23487 8.32554 9.23487C7.91132 9.23487 7.57554 9.57066 7.57554 9.98487V11.394C7.57554 11.8082 7.91132 12.144 8.32554 12.144C8.73975 12.144 9.07554 11.8082 9.07554 11.394V9.98487ZM12.2043 9.23487C12.6185 9.23487 12.9543 9.57066 12.9543 9.98487V11.394C12.9543 11.8082 12.6185 12.144 12.2043 12.144C11.7901 12.144 11.4543 11.8082 11.4543 11.394V9.98487C11.4543 9.57066 11.7901 9.23487 12.2043 9.23487Z" fill="#676879"/>
</svg>
