<svg width="17" height="17" viewBox="0 0 17 17" fill="none" xmlns="http://www.w3.org/2000/svg">
<path fill-rule="evenodd" clip-rule="evenodd" d="M13.0281 6.39119C13.3221 6.09942 13.3239 5.62455 13.0322 5.33054L8.90511 1.1717C8.7643 1.02981 8.57266 0.949997 8.37275 0.949997C8.17284 0.949997 7.98121 1.02981 7.84039 1.1717L3.71332 5.33054C3.42156 5.62455 3.42338 6.09942 3.71739 6.39119C4.0114 6.68296 4.48627 6.68114 4.77804 6.38712L7.69569 3.44701L7.69569 11.4842C7.69569 11.8984 8.03148 12.2342 8.44569 12.2342C8.85991 12.2342 9.19569 11.8984 9.19569 11.4842V3.59402L11.9675 6.38712C12.2592 6.68114 12.7341 6.68296 13.0281 6.39119ZM2.04981 15.3426L2.0498 11.0191C2.0498 10.6049 1.71402 10.2691 1.2998 10.2691C0.885591 10.2691 0.549805 10.6049 0.549805 11.0191V15.3815C0.549805 15.3958 0.550216 15.4101 0.551037 15.4244C0.577508 15.8858 0.812173 16.2913 1.15858 16.5648C1.49754 16.8324 1.92497 16.9622 2.34857 16.9491L14.7512 16.9491C15.1747 16.962 15.602 16.8321 15.9408 16.5646C16.2871 16.2913 16.5217 15.8861 16.5485 15.425C16.5494 15.4105 16.5498 15.396 16.5498 15.3815V11.0191C16.5498 10.6049 16.214 10.2691 15.7998 10.2691C15.3856 10.2691 15.0498 10.6049 15.0498 11.0191V15.3422C15.0492 15.3437 15.0484 15.3456 15.0471 15.3479C15.0427 15.356 15.0325 15.3706 15.0114 15.3873C14.9665 15.4227 14.8885 15.4534 14.7935 15.4497C14.7837 15.4493 14.7739 15.4491 14.7641 15.4491L2.33552 15.4491C2.32556 15.4491 2.31561 15.4493 2.30566 15.4497C2.21072 15.4535 2.13281 15.4228 2.08802 15.3874C2.06694 15.3708 2.05683 15.3563 2.05248 15.3483C2.05122 15.346 2.05037 15.3441 2.04981 15.3426Z" fill="#676879"/>
</svg>
