<svg width="20" height="20" viewBox="0 0 20 20" fill="none" xmlns="http://www.w3.org/2000/svg">
<path fill-rule="evenodd" clip-rule="evenodd" d="M5.61803 4.94953C4.55992 5.39616 3.79144 6.55086 3.74957 7.76852C3.73533 8.18249 3.3882 8.50654 2.97423 8.4923C2.56026 8.47806 2.23621 8.13093 2.25045 7.71696C2.31096 5.95758 3.40038 4.25745 5.03471 3.5676C6.57897 2.91577 8.43061 3.22643 10.156 4.85068C11.2185 3.84829 12.3354 3.33763 13.4246 3.26034C14.7078 3.16928 15.8391 3.68883 16.653 4.50073C18.245 6.08869 18.758 8.97943 16.7629 10.9739C16.755 10.9817 16.747 10.9894 16.7388 10.9969L10.6625 16.5535C10.376 16.8156 9.93681 16.8156 9.65026 16.5536L5.33223 12.6055C5.02654 12.326 5.00531 11.8516 5.28481 11.5459C5.56432 11.2402 6.03872 11.2189 6.34441 11.4985L10.1563 14.9838L15.7135 9.90182C16.9878 8.61534 16.725 6.69117 15.5937 5.56273C15.0444 5.01478 14.3242 4.70027 13.5308 4.75657C12.7373 4.81288 11.7569 5.24918 10.7187 6.42567C10.5764 6.58698 10.3716 6.6794 10.1565 6.67943C9.94134 6.67947 9.73655 6.58712 9.59416 6.42586C8.03165 4.65635 6.59683 4.53638 5.61803 4.94953Z" fill="#676879"/>
</svg>
