<svg width="1038" height="453" viewBox="0 0 1038 453" fill="none" xmlns="http://www.w3.org/2000/svg">
<path d="M18.9607 116.184H390.507V148.861L359.646 353.594H47.805L9.48047 139.179L18.9607 116.184Z" fill="#F0FFF9"/>
<path d="M40.0859 354H357V364.598L344 418.5H54L47 364.598L40.0859 354Z" fill="#00C875"/>
<path d="M88.8982 103.902H37.3457C31.917 103.902 26.5538 105.086 21.6294 107.371C16.705 109.656 12.338 112.987 8.83228 117.132C5.3266 121.277 2.76659 126.136 1.33054 131.372C-0.105516 136.607 -0.383093 142.092 0.517136 147.446L42.5165 399.774C43.95 408.519 48.4536 416.466 55.2186 422.188C61.9836 427.911 70.5671 431.035 79.428 431H325.969C334.829 431.035 343.412 427.912 350.177 422.19C356.942 416.468 361.446 408.522 362.88 399.778L369.096 362.431C369.219 361.329 369.113 360.213 368.786 359.154C368.46 358.094 367.919 357.113 367.197 356.271C366.475 355.429 365.588 354.744 364.591 354.26C363.593 353.775 362.507 353.5 361.399 353.453H50.4094L15.6995 144.909C15.1918 141.765 15.3701 138.547 16.2221 135.478C17.0742 132.409 18.5798 129.56 20.6359 127.127C22.692 124.694 25.2498 122.734 28.1341 121.382C31.0184 120.031 34.1609 119.318 37.3462 119.295H88.8982V185.815C88.8982 187.857 89.7091 189.814 91.1525 191.257C92.5958 192.701 94.5534 193.512 96.5947 193.512C98.6359 193.512 100.593 192.701 102.037 191.257C103.48 189.814 104.291 187.857 104.291 185.815V53.875C104.303 43.6726 108.361 33.8914 115.575 26.6772C122.79 19.463 132.571 15.4048 142.773 15.3928H262.624C272.826 15.4048 282.607 19.463 289.822 26.6772C297.036 33.8914 301.094 43.6726 301.106 53.875V103.902H135.295C133.28 103.941 131.36 104.769 129.949 106.208C128.538 107.647 127.747 109.583 127.747 111.598C127.747 113.614 128.538 115.549 129.949 116.988C131.361 118.427 133.28 119.255 135.295 119.295H368.051C371.238 119.318 374.381 120.031 377.266 121.384C380.151 122.736 382.71 124.697 384.766 127.131C386.822 129.565 388.327 132.416 389.178 135.486C390.03 138.557 390.207 141.775 389.697 144.921L361.069 316.906C360.77 318.904 361.267 320.939 362.455 322.573C363.643 324.207 365.425 325.308 367.418 325.639C369.41 325.971 371.453 325.506 373.106 324.344C374.758 323.183 375.888 321.418 376.251 319.431L404.88 147.457C405.741 142.109 405.435 136.637 403.984 131.418C402.533 126.199 399.97 121.355 396.472 117.218C392.975 113.081 388.624 109.75 383.718 107.451C378.813 105.153 373.468 103.942 368.051 103.902L316.499 103.902V53.875C316.482 39.5915 310.801 25.8979 300.701 15.798C290.601 5.69811 276.907 0.016662 262.624 0H142.773C128.49 0.016662 114.796 5.69811 104.696 15.798C94.5964 25.8979 88.9149 39.5915 88.8982 53.875V103.902ZM352.426 368.846L347.698 397.256C346.848 402.399 344.195 407.07 340.213 410.433C336.231 413.796 331.181 415.63 325.969 415.607H79.428C74.2156 415.63 69.1654 413.795 65.1833 410.432C61.2013 407.068 58.5479 402.396 57.6992 397.253L52.9711 368.846H352.426Z" fill="#323338"/>
<path d="M189.777 221.831C182.922 205.264 168.432 192.867 151.024 188.668C146.896 187.649 142.334 189.559 140.126 193.186C130.802 208.517 129.326 227.549 136.184 244.102C143.037 260.661 157.526 273.06 174.946 277.277C175.699 277.458 176.479 277.55 177.257 277.55C178.558 277.55 181.153 276.676 181.188 276.659C183.079 275.845 184.744 274.536 185.833 272.744C195.16 257.431 196.633 238.393 189.777 221.831ZM180.392 262.516L164.135 223.255C163.127 220.81 160.322 219.654 157.885 220.666C155.448 221.676 154.288 224.477 155.301 226.925L171.559 266.189C159.651 261.644 149.95 252.343 145.018 240.435C139.328 226.695 140.557 210.901 148.776 197.987C163.225 201.476 175.251 211.764 180.941 225.504C185.873 237.415 185.588 250.861 180.392 262.516Z" fill="#037F4C"/>
<path d="M282.903 188.888C279.081 188.291 275.182 187.992 271.315 187.992C251.403 187.992 232.683 195.745 218.604 209.821C201.818 226.598 193.994 250.628 197.672 274.103C197.813 274.982 198.163 275.783 198.491 276.594C194.474 281.078 192.23 286.949 192.443 292.994C192.667 299.463 195.6 305.613 200.491 309.862C201.399 310.646 202.516 311.034 203.628 311.034C204.964 311.034 206.295 310.479 207.243 309.388C208.978 307.394 208.766 304.372 206.769 302.631C203.835 300.083 202.143 296.536 202.011 292.655C201.887 289.159 203.103 285.889 205.338 283.261C206.071 283.537 206.777 283.87 207.562 283.993C211.389 284.591 215.291 284.898 219.164 284.898C239.07 284.898 257.784 277.145 271.863 263.069C288.646 246.293 296.473 222.263 292.792 198.787C292.008 193.755 287.942 189.687 282.903 188.888ZM265.094 256.298C252.828 268.567 236.516 275.324 219.167 275.324C217.245 275.324 215.317 275.215 213.395 275.042L256.787 231.656C258.658 229.786 258.658 226.759 256.787 224.888C254.917 223.018 251.885 223.018 250.015 224.888L206.708 268.194C205.062 249.174 211.797 230.16 225.373 216.589C237.645 204.32 253.963 197.564 271.315 197.564C274.691 197.564 278.09 197.825 281.414 198.348C282.362 198.497 283.187 199.319 283.334 200.267C286.546 220.726 279.725 241.671 265.094 256.298Z" fill="#037F4C"/>
<path d="M496.772 153.07H605.556V193.742H496.772V153.07ZM500.646 246.036H623.633V288H448.675V62.04H619.436V104.004H500.646V246.036ZM744.673 290.582C725.95 290.582 709.272 286.816 694.639 279.284C680.005 271.537 668.492 260.885 660.099 247.327C651.921 233.77 647.833 218.383 647.833 201.167C647.833 183.736 651.921 168.349 660.099 155.006C668.492 141.449 680.005 130.904 694.639 123.372C709.272 115.625 725.95 111.751 744.673 111.751C762.965 111.751 778.889 115.625 792.447 123.372C806.005 130.904 816.011 141.772 822.467 155.975L783.409 176.957C778.889 168.779 773.187 162.754 766.3 158.88C759.629 155.006 752.312 153.07 744.35 153.07C735.742 153.07 727.995 155.006 721.108 158.88C714.222 162.754 708.734 168.241 704.645 175.343C700.772 182.444 698.835 191.052 698.835 201.167C698.835 211.281 700.772 219.889 704.645 226.991C708.734 234.092 714.222 239.58 721.108 243.454C727.995 247.327 735.742 249.264 744.35 249.264C752.312 249.264 759.629 247.435 766.3 243.776C773.187 239.903 778.889 233.77 783.409 225.377L822.467 246.682C816.011 260.67 806.005 271.537 792.447 279.284C778.889 286.816 762.965 290.582 744.673 290.582ZM931.891 290.582C913.384 290.582 896.921 286.709 882.503 278.962C868.3 271.214 857.002 260.67 848.609 247.327C840.431 233.77 836.343 218.383 836.343 201.167C836.343 183.736 840.431 168.349 848.609 155.006C857.002 141.449 868.3 130.904 882.503 123.372C896.921 115.625 913.384 111.751 931.891 111.751C950.183 111.751 966.539 115.625 980.957 123.372C995.375 130.904 1006.67 141.341 1014.85 154.684C1023.03 168.026 1027.12 183.52 1027.12 201.167C1027.12 218.383 1023.03 233.77 1014.85 247.327C1006.67 260.67 995.375 271.214 980.957 278.962C966.539 286.709 950.183 290.582 931.891 290.582ZM931.891 249.264C940.284 249.264 947.816 247.327 954.487 243.454C961.159 239.58 966.431 234.092 970.305 226.991C974.178 219.674 976.115 211.066 976.115 201.167C976.115 191.052 974.178 182.444 970.305 175.343C966.431 168.241 961.159 162.754 954.487 158.88C947.816 155.006 940.284 153.07 931.891 153.07C923.499 153.07 915.967 155.006 909.295 158.88C902.624 162.754 897.244 168.241 893.155 175.343C889.282 182.444 887.345 191.052 887.345 201.167C887.345 211.066 889.282 219.674 893.155 226.991C897.244 234.092 902.624 239.58 909.295 243.454C915.967 247.327 923.499 249.264 931.891 249.264Z" fill="#037F4C"/>
<path d="M577.759 356.1C583.733 356.1 589.006 357.267 593.579 359.6C598.153 361.933 601.699 365.48 604.219 370.24C606.833 375 608.139 381.02 608.139 388.3V431H594.699V389.84C594.699 382.653 593.019 377.24 589.659 373.6C586.299 369.96 581.586 368.14 575.519 368.14C571.039 368.14 567.119 369.073 563.759 370.94C560.399 372.807 557.786 375.56 555.919 379.2C554.146 382.84 553.259 387.367 553.259 392.78V431H539.819V389.84C539.819 382.653 538.139 377.24 534.779 373.6C531.513 369.96 526.799 368.14 520.639 368.14C516.253 368.14 512.379 369.073 509.019 370.94C505.659 372.807 503.046 375.56 501.179 379.2C499.313 382.84 498.379 387.367 498.379 392.78V431H484.939V356.8H497.819V376.54L495.719 371.5C498.053 366.647 501.646 362.867 506.499 360.16C511.353 357.453 516.999 356.1 523.439 356.1C530.533 356.1 536.646 357.873 541.779 361.42C546.913 364.873 550.273 370.147 551.859 377.24L546.399 375C548.639 369.307 552.559 364.733 558.159 361.28C563.759 357.827 570.293 356.1 577.759 356.1ZM678.929 431V415.32L678.229 412.38V385.64C678.229 379.947 676.549 375.56 673.189 372.48C669.922 369.307 664.976 367.72 658.349 367.72C653.962 367.72 649.669 368.467 645.469 369.96C641.269 371.36 637.722 373.273 634.829 375.7L629.229 365.62C633.056 362.54 637.629 360.207 642.949 358.62C648.362 356.94 654.009 356.1 659.889 356.1C670.062 356.1 677.902 358.573 683.409 363.52C688.916 368.467 691.669 376.027 691.669 386.2V431H678.929ZM654.569 431.84C649.062 431.84 644.209 430.907 640.009 429.04C635.902 427.173 632.729 424.607 630.489 421.34C628.249 417.98 627.129 414.2 627.129 410C627.129 405.987 628.062 402.347 629.929 399.08C631.889 395.813 635.016 393.2 639.309 391.24C643.696 389.28 649.576 388.3 656.949 388.3H680.469V397.96H657.509C650.789 397.96 646.262 399.08 643.929 401.32C641.596 403.56 640.429 406.267 640.429 409.44C640.429 413.08 641.876 416.02 644.769 418.26C647.662 420.407 651.676 421.48 656.809 421.48C661.849 421.48 666.236 420.36 669.969 418.12C673.796 415.88 676.549 412.613 678.229 408.32L680.889 417.56C679.116 421.947 675.989 425.447 671.509 428.06C667.029 430.58 661.382 431.84 654.569 431.84ZM716.541 431V356.8H729.421V376.96L728.161 371.92C730.214 366.787 733.667 362.867 738.521 360.16C743.374 357.453 749.347 356.1 756.441 356.1V369.12C755.881 369.027 755.321 368.98 754.761 368.98C754.294 368.98 753.827 368.98 753.361 368.98C746.174 368.98 740.481 371.127 736.281 375.42C732.081 379.713 729.981 385.92 729.981 394.04V431H716.541ZM783.926 413.08L784.206 395.86L826.906 356.8H843.146L810.386 389L803.106 395.16L783.926 413.08ZM773.006 431V327.12H786.446V431H773.006ZM829.706 431L800.586 394.88L809.266 384.1L846.226 431H829.706ZM889.307 431.84C881.374 431.84 874.374 430.207 868.307 426.94C862.334 423.673 857.667 419.193 854.307 413.5C851.041 407.807 849.407 401.273 849.407 393.9C849.407 386.527 850.994 379.993 854.167 374.3C857.434 368.607 861.867 364.173 867.467 361C873.161 357.733 879.554 356.1 886.647 356.1C893.834 356.1 900.181 357.687 905.687 360.86C911.194 364.033 915.487 368.513 918.567 374.3C921.741 379.993 923.327 386.667 923.327 394.32C923.327 394.88 923.281 395.533 923.187 396.28C923.187 397.027 923.141 397.727 923.047 398.38H859.907V388.72H916.047L910.587 392.08C910.681 387.32 909.701 383.073 907.647 379.34C905.594 375.607 902.747 372.713 899.107 370.66C895.561 368.513 891.407 367.44 886.647 367.44C881.981 367.44 877.827 368.513 874.187 370.66C870.547 372.713 867.701 375.653 865.647 379.48C863.594 383.213 862.567 387.507 862.567 392.36V394.6C862.567 399.547 863.687 403.98 865.927 407.9C868.261 411.727 871.481 414.713 875.587 416.86C879.694 419.007 884.407 420.08 889.727 420.08C894.114 420.08 898.081 419.333 901.627 417.84C905.267 416.347 908.441 414.107 911.147 411.12L918.567 419.8C915.207 423.72 911.007 426.707 905.967 428.76C901.021 430.813 895.467 431.84 889.307 431.84ZM967.47 431.84C960.003 431.84 954.217 429.833 950.11 425.82C946.003 421.807 943.95 416.067 943.95 408.6V340.56H957.39V408.04C957.39 412.053 958.37 415.133 960.33 417.28C962.383 419.427 965.277 420.5 969.01 420.5C973.21 420.5 976.71 419.333 979.51 417L983.71 426.66C981.657 428.433 979.183 429.74 976.29 430.58C973.49 431.42 970.55 431.84 967.47 431.84ZM931.35 367.86V356.8H978.67V367.86H931.35Z" fill="#323338"/>
</svg>
