<svg width="88" height="39" viewBox="0 0 88 39" fill="none" xmlns="http://www.w3.org/2000/svg">
<path d="M1.57634 9.66016H32.4692V12.3771L29.9032 29.4H3.97464L0.788086 11.5721L1.57634 9.66016Z" fill="#F0FFF9"/>
<path d="M3.33301 29.4341H29.6833V30.3153L28.6025 34.797H4.48992L3.90789 30.3153L3.33301 29.4341Z" fill="#00C875"/>
<path d="M7.3916 8.63909H3.10517C2.6538 8.63914 2.20786 8.73759 1.79841 8.92758C1.38897 9.11756 1.02586 9.39452 0.734375 9.73916C0.442889 10.0838 0.230033 10.4878 0.11063 10.9231C-0.0087733 11.3584 -0.0318529 11.8145 0.0429981 12.2596L3.53511 33.2399C3.6543 33.967 4.02875 34.6277 4.59124 35.1036C5.15373 35.5794 5.86742 35.8392 6.60418 35.8362H27.1033C27.84 35.8392 28.5536 35.5795 29.1161 35.1037C29.6786 34.6279 30.053 33.9672 30.1723 33.2402L30.6891 30.1349C30.6993 30.0433 30.6905 29.9506 30.6634 29.8624C30.6362 29.7743 30.5912 29.6927 30.5312 29.6228C30.4712 29.5528 30.3975 29.4958 30.3145 29.4555C30.2316 29.4152 30.1413 29.3924 30.0492 29.3885H4.19138L1.30536 12.0487C1.26315 11.7873 1.27797 11.5197 1.34882 11.2645C1.41966 11.0093 1.54485 10.7725 1.71581 10.5702C1.88676 10.3679 2.09944 10.205 2.33926 10.0925C2.57908 9.98014 2.84037 9.92093 3.10521 9.91895H7.3916V15.4499C7.3916 15.6197 7.45902 15.7824 7.57903 15.9024C7.69904 16.0224 7.86181 16.0899 8.03153 16.0899C8.20125 16.0899 8.36402 16.0224 8.48403 15.9024C8.60404 15.7824 8.67146 15.6197 8.67146 15.4499V4.47953C8.67246 3.63123 9.00988 2.81796 9.60972 2.21812C10.2096 1.61829 11.0228 1.28086 11.8711 1.27986H21.8363C22.6846 1.28086 23.4979 1.61829 24.0977 2.21812C24.6976 2.81796 25.035 3.63123 25.036 4.47953V8.63909H11.2493C11.0818 8.64236 10.9222 8.71122 10.8048 8.83088C10.6875 8.95054 10.6217 9.11144 10.6218 9.27904C10.6218 9.44663 10.6875 9.60754 10.8048 9.72719C10.9222 9.84684 11.0818 9.91569 11.2494 9.91895H30.6023C30.8672 9.92092 31.1286 9.98018 31.3684 10.0926C31.6083 10.2051 31.821 10.3681 31.992 10.5705C32.163 10.7729 32.2881 11.0099 32.3589 11.2652C32.4297 11.5205 32.4444 11.7881 32.402 12.0497L30.0217 26.3497C29.9968 26.5158 30.0382 26.685 30.1369 26.8209C30.2357 26.9567 30.3839 27.0483 30.5496 27.0759C30.7153 27.1034 30.8851 27.0647 31.0225 26.9682C31.1599 26.8716 31.2539 26.7249 31.2841 26.5597L33.6644 12.2606C33.736 11.8159 33.7106 11.3609 33.5899 10.927C33.4693 10.493 33.2562 10.0902 32.9654 9.74629C32.6745 9.40234 32.3128 9.12533 31.9049 8.93423C31.497 8.74313 31.0526 8.64246 30.6022 8.63912L26.3158 8.63909V4.47953C26.3145 3.29191 25.8421 2.15333 25.0023 1.31355C24.1625 0.473779 23.0239 0.00138539 21.8363 0H11.8711C10.6835 0.00138539 9.54492 0.473779 8.70515 1.31355C7.86538 2.15333 7.39298 3.29191 7.3916 4.47953V8.63909ZM29.3031 30.6683L28.9099 33.0306C28.8393 33.4581 28.6187 33.8465 28.2876 34.1262C27.9565 34.4058 27.5366 34.5583 27.1033 34.5563H6.60418C6.17078 34.5583 5.75087 34.4057 5.41978 34.126C5.08869 33.8464 4.86807 33.4579 4.7975 33.0303L4.40437 30.6683H29.3031Z" fill="#727272"/>
<path d="M15.7786 18.4441C15.2086 17.0666 14.0039 16.0359 12.5564 15.6867C12.2132 15.602 11.8339 15.7608 11.6503 16.0624C10.875 17.3371 10.7523 18.9196 11.3226 20.2959C11.8924 21.6727 13.0971 22.7037 14.5455 23.0543C14.6081 23.0693 14.673 23.077 14.7377 23.077C14.8458 23.077 15.0616 23.0043 15.0645 23.0029C15.2218 22.9352 15.3602 22.8264 15.4507 22.6774C16.2262 21.4041 16.3487 19.8212 15.7786 18.4441ZM14.9983 21.827L13.6466 18.5625C13.5628 18.3592 13.3296 18.2631 13.1269 18.3473C12.9243 18.4312 12.8278 18.6642 12.9121 18.8677L14.2639 22.1323C13.2737 21.7545 12.4672 20.9811 12.0571 19.991C11.584 18.8485 11.6861 17.5354 12.3695 16.4616C13.5709 16.7517 14.5708 17.6071 15.0439 18.7495C15.454 19.7399 15.4304 20.8579 14.9983 21.827Z" fill="#037F4C"/>
<path d="M23.5216 15.7054C23.2039 15.6557 22.8797 15.6309 22.5581 15.6309C20.9025 15.6309 19.346 16.2755 18.1754 17.4459C16.7797 18.8408 16.1292 20.8388 16.435 22.7907C16.4467 22.8638 16.4758 22.9304 16.5031 22.9978C16.1691 23.3706 15.9825 23.8589 16.0002 24.3614C16.0188 24.8993 16.2627 25.4107 16.6693 25.7639C16.7448 25.8291 16.8378 25.8614 16.9302 25.8614C17.0413 25.8614 17.1519 25.8153 17.2308 25.7245C17.3751 25.5588 17.3574 25.3075 17.1914 25.1627C16.9474 24.9509 16.8067 24.6559 16.7957 24.3332C16.7855 24.0425 16.8865 23.7707 17.0724 23.5522C17.1333 23.5751 17.1921 23.6028 17.2573 23.6131C17.5755 23.6628 17.8999 23.6883 18.222 23.6883C19.8771 23.6883 21.4331 23.0436 22.6038 21.8733C23.9992 20.4784 24.65 18.4804 24.3439 16.5285C24.2787 16.11 23.9407 15.7718 23.5216 15.7054ZM22.0409 21.3103C21.021 22.3304 19.6647 22.8922 18.2222 22.8922C18.0624 22.8922 17.9021 22.8831 17.7423 22.8688L21.3502 19.2614C21.5057 19.1059 21.5057 18.8542 21.3502 18.6987C21.1947 18.5432 20.9426 18.5432 20.7871 18.6987L17.1863 22.2994C17.0494 20.7179 17.6094 19.137 18.7383 18.0086C19.7586 16.9885 21.1154 16.4267 22.5581 16.4267C22.8388 16.4267 23.1215 16.4485 23.3979 16.4919C23.4767 16.5043 23.5453 16.5727 23.5575 16.6515C23.8246 18.3526 23.2574 20.0941 22.0409 21.3103Z" fill="#037F4C"/>
<path d="M42.0317 20.9083V16.5603H50.7546V13.1784H42.0317V9.0988H51.9087V5.60963H37.7105V24.3975H52.2577V20.9083H42.0317ZM62.2955 24.6122C65.3284 24.6122 67.7171 23.2702 68.7639 20.962L65.5163 19.1905C64.7379 20.5862 63.5838 21.1767 62.2687 21.1767C60.1483 21.1767 58.4843 19.7005 58.4843 17.1776C58.4843 14.6546 60.1483 13.1784 62.2687 13.1784C63.5838 13.1784 64.7379 13.7958 65.5163 15.1646L68.7639 13.42C67.7171 11.0581 65.3284 9.74296 62.2955 9.74296C57.5986 9.74296 54.2436 12.8295 54.2436 17.1776C54.2436 21.5256 57.5986 24.6122 62.2955 24.6122ZM77.8622 24.6122C82.4518 24.6122 85.7799 21.5256 85.7799 17.1776C85.7799 12.8295 82.4518 9.74296 77.8622 9.74296C73.2726 9.74296 69.9176 12.8295 69.9176 17.1776C69.9176 21.5256 73.2726 24.6122 77.8622 24.6122ZM77.8622 21.1767C75.7687 21.1767 74.1583 19.6737 74.1583 17.1776C74.1583 14.6815 75.7687 13.1784 77.8622 13.1784C79.9557 13.1784 81.5392 14.6815 81.5392 17.1776C81.5392 19.6737 79.9557 21.1767 77.8622 21.1767Z" fill="#037F4C"/>
<path d="M48.436 29.1698C47.3884 29.1698 46.527 29.6121 46.0613 30.3105C45.6539 29.5423 44.8624 29.1698 43.9195 29.1698C42.9882 29.1698 42.2316 29.519 41.7893 30.1476V29.228H40.7183V35.3975H41.8358V32.2196C41.8358 30.8809 42.5692 30.1709 43.6867 30.1709C44.6994 30.1709 45.2814 30.7645 45.2814 31.9751V35.3975H46.3989V32.2196C46.3989 30.8809 47.1323 30.1709 48.2498 30.1709C49.2625 30.1709 49.8445 30.7645 49.8445 31.9751V35.3975H50.962V31.8471C50.962 30.0312 49.9376 29.1698 48.436 29.1698ZM55.2648 29.1698C54.2754 29.1698 53.3558 29.4491 52.7156 29.9613L53.1812 30.7994C53.6584 30.392 54.4034 30.1359 55.1368 30.1359C56.2426 30.1359 56.7897 30.683 56.7897 31.6259V31.8471H55.0204C53.1812 31.8471 52.5409 32.6619 52.5409 33.6514C52.5409 34.7223 53.4256 35.4673 54.8225 35.4673C55.7887 35.4673 56.4754 35.1414 56.8479 34.5826V35.3975H57.9072V31.6725C57.9072 29.9846 56.9527 29.1698 55.2648 29.1698ZM55.0087 34.6059C54.159 34.6059 53.6468 34.2218 53.6468 33.6048C53.6468 33.081 53.9611 32.6503 55.0669 32.6503H56.7897V33.5117C56.5104 34.2218 55.8469 34.6059 55.0087 34.6059ZM61.0462 30.264V29.228H59.9752V35.3975H61.0927V32.3244C61.0927 30.9741 61.8377 30.2407 63.0367 30.2407C63.1182 30.2407 63.1997 30.2407 63.2928 30.2523V29.1698C62.2102 29.1698 61.442 29.5423 61.0462 30.264ZM69.3845 35.3975H70.7581L67.9062 31.7773L70.502 29.228H69.1517L65.7876 32.3011V26.7602H64.6701V35.3975H65.7876V33.7096L67.0681 32.5222L69.3845 35.3975ZM77.1575 32.3476C77.1575 30.4502 75.8887 29.1698 74.1077 29.1698C72.3267 29.1698 71.0113 30.4852 71.0113 32.3127C71.0113 34.1519 72.3383 35.4673 74.3288 35.4673C75.3532 35.4673 76.203 35.1181 76.7617 34.4662L76.1448 33.7445C75.6908 34.245 75.0855 34.4895 74.3638 34.4895C73.1415 34.4895 72.2685 33.7678 72.1288 32.6852H77.1342C77.1459 32.5805 77.1575 32.4408 77.1575 32.3476ZM74.1077 30.1127C75.1902 30.1127 75.9702 30.846 76.0866 31.882H72.1288C72.2452 30.8344 73.0367 30.1127 74.1077 30.1127ZM81.8289 34.2334C81.5961 34.4197 81.2818 34.5244 80.9559 34.5244C80.3389 34.5244 79.9897 34.1519 79.9897 33.4884V30.1476H81.7591V29.228H79.9897V27.8777H78.8722V29.228H77.8246V30.1476H78.8722V33.535C78.8722 34.7805 79.5823 35.4673 80.8278 35.4673C81.3284 35.4673 81.8405 35.3276 82.1781 35.0366L81.8289 34.2334Z" fill="#F0FFF9"/>
</svg>
