<svg width="26" height="26" viewBox="0 0 26 26" fill="none" xmlns="http://www.w3.org/2000/svg">
<circle opacity="0.9" cx="13" cy="13" r="13" fill="white"/>
<path fill-rule="evenodd" clip-rule="evenodd" d="M11.3003 4.86462C10.7799 4.86462 10.2948 5.08976 9.94732 5.46719C9.60179 5.84253 9.41724 6.33927 9.41724 6.84552V7.32642H7.901H5.63477C5.22055 7.32642 4.88477 7.6622 4.88477 8.07642C4.88477 8.49063 5.22055 8.82642 5.63477 8.82642H7.151V19.1545C7.151 19.6608 7.33556 20.1575 7.68109 20.5328C8.02853 20.9103 8.51371 21.1354 9.03411 21.1354H16.9659C17.4863 21.1354 17.9715 20.9103 18.3189 20.5328C18.6645 20.1575 18.849 19.6608 18.849 19.1545V8.82642H20.3652C20.7794 8.82642 21.1152 8.49063 21.1152 8.07642C21.1152 7.6622 20.7794 7.32642 20.3652 7.32642H18.099H16.5828V6.84552C16.5828 6.33927 16.3982 5.84253 16.0527 5.46719C15.7053 5.08976 15.2201 4.86462 14.6997 4.86462H11.3003ZM10.1645 8.82642C10.1654 8.82642 10.1663 8.82642 10.1672 8.82642H15.8328C15.8337 8.82642 15.8346 8.82642 15.8356 8.82642H17.349V19.1545C17.349 19.3012 17.2948 19.4306 17.2153 19.5169C17.1378 19.6012 17.0465 19.6354 16.9659 19.6354H9.03411C8.95348 19.6354 8.86223 19.6012 8.78468 19.5169C8.7052 19.4306 8.651 19.3012 8.651 19.1545V8.82642H10.1645ZM15.0828 7.32642V6.84552C15.0828 6.69887 15.0286 6.56943 14.9491 6.4831C14.8716 6.39886 14.7803 6.36462 14.6997 6.36462H11.3003C11.2197 6.36462 11.1285 6.39886 11.0509 6.4831C10.9714 6.56943 10.9172 6.69887 10.9172 6.84552V7.32642L15.0828 7.32642Z" fill="#676879"/>
</svg>
